# xmcd
#
# Track frame offsets:
#  150
#  9704
#  22012
#  34495
#  46519
#  58020
#  65308
#  78855
#  86910
#  98193
#  109214
#  119403
#  128131
#  138770
#  149589
#  157694
#
# Disc length: 2252 seconds
#
# Revision: 0
# Processed by: cddbd v1.5.1PL2 Copyright (c) Steve Scherf et al.
# Submitted via: Collectorz.com_Music_Collector 6.10
#
DISCID=d408ca10
DTITLE=Blue grass Boogiemen - Who's Afraid Of The Boogiemen?
DYEAR=2006
DGENRE=Bluegrass
TTITLE0=The Lovin' Machine
TTITLE1=Please Make Up Your Mind
TTITLE2=I Wish I Had A Nickel
TTITLE3=It's Not Like Home
TTITLE4=Sittin' And Thinkin'
TTITLE5=Out Of Business
TTITLE6=Woman Let Me Sing You A Song
TTITLE7=Goin' Up Caney
TTITLE8=The Storm Has Just Begon
TTITLE9=When Your House Is Not A Home
TTITLE10=Down To The River
TTITLE11=You'll Never Be The Same
TTITLE12=Leave Well Enough Alone
TTITLE13=When God Comes And Gathers His Jewels
TTITLE14=My Heart Still Beats For Only You
TTITLE15=Allen Road
EXTD=
EXTT0=
EXTT1=
EXTT2=
EXTT3=
EXTT4=
EXTT5=
EXTT6=
EXTT7=
EXTT8=
EXTT9=
EXTT10=
EXTT11=
EXTT12=
EXTT13=
EXTT14=
EXTT15=
PLAYORDER=
